<?xml version="1.0" encoding="utf-8"?>
<!-- Generator: Adobe Illustrator 20.1.0, SVG Export Plug-In . SVG Version: 6.00 Build 0)  -->
<svg version="1.1" id="Layer_1_copy" xmlns="http://www.w3.org/2000/svg" xmlns:xlink="http://www.w3.org/1999/xlink" x="0px"
	 y="0px" viewBox="0 0 212.4 174.9" style="enable-background:new 0 0 212.4 174.9;" xml:space="preserve">
<style type="text/css">
	.st0{fill:#FFFFFF;}
	.st1{fill:#FFCF01;}
</style>
<path class="st0" d="M212.4,139c0,19.7-16.2,35.9-35.9,35.9H35.9C16.2,174.9,0,158.7,0,139V35.9C0,16.1,16.2,0,35.9,0h140.7
	c19.7,0,35.9,16.1,35.9,35.9V139L212.4,139z"/>
<path class="st1" d="M183.1,129.8v-6h-50.6V99.1l32.9,0c9.6,0,17.5-7.7,17.7-17.3v-6v0h-50.6V51.1l33,0c9.6-0.1,17.4-7.7,17.7-17.3
	v-6h-73.9v119.4h56.3C175,147,182.8,139.4,183.1,129.8"/>
<path d="M103.3,75.8H52.6V51.1l33,0c9.6-0.1,17.5-7.8,17.7-17.5l0-5.9H29.3v119.4H35c9.6-0.1,17.3-7.6,17.7-17.1l0-30.9l34,0
	c9.2-0.6,16.4-8.1,16.6-17.4L103.3,75.8L103.3,75.8L103.3,75.8z"/>
</svg>
