<?xml version="1.0" encoding="utf-8"?>
<!-- Generator: Adobe Illustrator 20.1.0, SVG Export Plug-In . SVG Version: 6.00 Build 0)  -->
<svg version="1.1" id="Layer_1_copy" xmlns="http://www.w3.org/2000/svg" xmlns:xlink="http://www.w3.org/1999/xlink" x="0px"
	 y="0px" viewBox="0 0 774.3 229.5" style="enable-background:new 0 0 774.3 229.5;" xml:space="preserve">
<style type="text/css">
	.st0{fill:#FFFFFF;}
	.st1{fill:#FFCF01;}
</style>
<path class="st0" d="M212.4,139c0,19.7-16.2,35.9-35.9,35.9H35.9C16.2,174.9,0,158.7,0,139V35.9C0,16.1,16.2,0,35.9,0h140.7
	c19.7,0,35.9,16.1,35.9,35.9V139L212.4,139z"/>
<path class="st1" d="M183.1,129.8v-6h-50.6V99.1l32.9,0c9.6,0,17.5-7.7,17.7-17.3v-6v0h-50.6V51.1l33,0c9.6-0.1,17.4-7.7,17.7-17.3
	v-6h-73.9v119.4h56.3C175,147,182.8,139.4,183.1,129.8"/>
<path d="M103.3,75.8H52.6V51.1l33,0c9.6-0.1,17.5-7.8,17.7-17.5l0-5.9H29.3v119.4H35c9.6-0.1,17.3-7.6,17.7-17.1l0-30.9l34,0
	c9.2-0.6,16.4-8.1,16.6-17.4L103.3,75.8L103.3,75.8L103.3,75.8z"/>
<g>
	<path d="M257.2,214.3h-8.8v11.9h8.8c4,0,6.5-2.3,6.5-6C263.7,216.6,261.2,214.3,257.2,214.3 M256.8,200h-8.4v11.2h8.4
		c3.6,0,6.4-1.8,6.4-5.6C263.2,201.7,260.4,200,256.8,200 M257.5,229.3h-12.6v-32.4h12.2c5.6,0,9.5,3.2,9.5,8.6c0,3.4-2,6.1-4.8,7.1
		c3.1,1.1,5.3,3.8,5.3,7.7C267.1,226.2,263.2,229.3,257.5,229.3"/>
	<polygon points="274.9,229.3 274.9,196.9 295,196.9 295,200 278.3,200 278.3,211.4 292.5,211.4 292.5,214.5 278.3,214.5 
		278.3,226.2 295,226.2 295,229.3 274.9,229.3 	"/>
	<path d="M325,214.3h-8.8v11.9h8.8c4,0,6.5-2.3,6.5-6C331.6,216.6,329.1,214.3,325,214.3 M324.7,200h-8.5v11.2h8.5
		c3.6,0,6.4-1.8,6.4-5.6C331.1,201.7,328.3,200,324.7,200 M325.4,229.3h-12.6v-32.4H325c5.6,0,9.5,3.2,9.5,8.6c0,3.4-2,6.1-4.8,7.1
		c3.1,1.1,5.3,3.8,5.3,7.7C335,226.2,331.1,229.3,325.4,229.3"/>
	<polygon points="342.7,229.3 342.7,196.9 362.9,196.9 362.9,200 346.2,200 346.2,211.4 360.4,211.4 360.4,214.5 346.2,214.5 
		346.2,226.2 362.9,226.2 362.9,229.3 342.7,229.3 	"/>
	<polygon points="379.2,200 379.2,229.3 375.7,229.3 375.7,200 366.4,200 366.4,196.9 388.6,196.9 388.6,200 379.2,200 	"/>
	<polygon points="403.8,200 403.8,229.3 400.3,229.3 400.3,200 390.9,200 390.9,196.9 413.1,196.9 413.1,200 403.8,200 	"/>
	<polygon points="418.8,229.3 418.8,196.9 438.9,196.9 438.9,200 422.3,200 422.3,211.4 436.5,211.4 436.5,214.5 422.3,214.5 
		422.3,226.2 438.9,226.2 438.9,229.3 418.8,229.3 	"/>
	<path d="M457.9,200h-8.6v11.9h8.6c3.8,0,6.5-2,6.5-5.9C464.3,202,461.6,200,457.9,200 M464.4,229.3l-7.4-14.4h-7.8v14.4h-3.5v-32.4
		h12.4c5.6,0,9.6,3.4,9.6,9c0,4.7-2.9,7.8-7.1,8.7l7.7,14.7H464.4L464.4,229.3z"/>
	<polygon points="486.2,229.3 489.6,229.3 489.6,196.9 486.2,196.9 486.2,229.3 	"/>
	<polygon points="518.9,229.3 501.7,203.3 501.7,229.3 498.3,229.3 498.3,196.9 501.5,196.9 518.7,222.8 518.7,196.9 522.2,196.9 
		522.2,229.3 518.9,229.3 	"/>
	<polygon points="534.6,200 534.6,211.9 548.8,211.9 548.8,215 534.6,215 534.6,229.3 531.1,229.3 531.1,196.9 551.2,196.9 
		551.2,200 534.6,200 	"/>
	<path d="M572.8,202c-1.4-1.5-3.5-2.3-5.6-2.3c-2.1,0-4.2,0.9-5.6,2.3c-2,2.1-2.3,4.3-2.3,11.1c0,6.8,0.2,9,2.3,11.1
		c1.4,1.5,3.5,2.3,5.6,2.3c2.1,0,4.2-0.9,5.6-2.3c2-2.1,2.3-4.3,2.3-11.1C575.1,206.3,574.8,204.1,572.8,202 M575.5,226.2
		c-2.2,2.2-5,3.4-8.3,3.4c-3.2,0-6.1-1.2-8.3-3.4c-3-3-3-6.2-3-13.1c0-6.9,0-10.1,3-13.1c2.2-2.2,5-3.4,8.3-3.4
		c3.2,0,6.1,1.2,8.3,3.4c3.1,3,3.1,6.2,3.1,13.1C578.5,219.9,578.5,223.1,575.5,226.2"/>
	<path d="M598.3,200h-8.7v11.9h8.7c3.8,0,6.5-2,6.5-5.9C604.8,202,602.1,200,598.3,200 M604.8,229.3l-7.4-14.4h-7.8v14.4h-3.4v-32.4
		h12.4c5.6,0,9.6,3.4,9.6,9c0,4.7-2.9,7.8-7.1,8.7l7.7,14.7H604.8L604.8,229.3z"/>
	<polygon points="640,229.3 640,204.7 631.1,224.2 628.2,224.2 619.1,204.7 619.1,229.3 615.7,229.3 615.7,196.9 619.1,196.9 
		629.7,219.9 640,196.9 643.4,196.9 643.4,229.3 640,229.3 	"/>
	<polygon points="652.5,229.3 652.5,196.9 672.6,196.9 672.6,200 655.9,200 655.9,211.4 670.1,211.4 670.1,214.5 655.9,214.5 
		655.9,226.2 672.6,226.2 672.6,229.3 652.5,229.3 	"/>
	<path d="M696.1,202.3c-1.7-1.7-3.9-2.4-6.4-2.4h-7.1v26.2h7.1c2.5,0,4.7-0.6,6.4-2.4c2.2-2.3,2.1-7.1,2.1-11.1
		C698.3,208.8,698.4,204.7,696.1,202.3 M698.5,226.3c-1.9,2-4.8,3-8.2,3h-11.1v-32.4h11.1c3.4,0,6.2,1,8.2,3
		c3.4,3.4,3.2,8.3,3.2,12.8C701.7,217.2,701.9,222.9,698.5,226.3"/>
</g>
<g>
	<path d="M300.7,110.3c0,7.5-0.2,12.7-0.7,15.6c-0.9,5.7-3.1,10.3-6.5,13.7c-4.5,4.5-10.6,6.7-18.3,6.7h-24.9v-71h24.9
		c7.8,0,13.9,2.2,18.3,6.7c3.4,3.4,5.5,7.8,6.5,13.2C300.4,97.9,300.7,103,300.7,110.3z M289.9,110.3c0-5.9-0.2-10-0.5-12.4
		c-0.5-3.6-1.6-6.3-3.3-8.2c-2.9-3.2-6.9-4.8-12.1-4.8H261v51.6h13.1c5.2,0,9.2-1.6,12.1-4.8c1.7-1.9,2.8-4.7,3.3-8.7
		C289.7,120.6,289.9,116.3,289.9,110.3z"/>
	<path d="M364.8,146.3h-11.5l-4.9-14.3h-28l-4.9,14.3h-11.5l26-71h8.7L364.8,146.3z M345.5,122.9l-10.8-31.6l-11.1,31.6H345.5z"/>
	<path d="M414.5,85h-19.5v61.3h-10.8V85h-19.5v-9.7h49.8V85z"/>
	<path d="M475,146.3h-11.5l-4.9-14.3h-28l-4.9,14.3h-11.5l26-71h8.7L475,146.3z M455.6,122.9l-10.8-31.6l-11.1,31.6H455.6z"/>
	<path d="M546.3,85h-34.6v21.6h29.5v9.7h-29.5v30H501v-71h45.3V85z"/>
	<path d="M600.6,146.3h-45.3v-71h45.3V85H566v20.7h29.5v9.6H566v21.3h34.6V146.3z"/>
	<path d="M656.7,146.3h-45.3v-71h45.3V85h-34.6v20.7h29.5v9.6h-29.5v21.3h34.6V146.3z"/>
	<path d="M717.9,110.3c0,7.5-0.2,12.7-0.7,15.6c-0.9,5.7-3.1,10.3-6.5,13.7c-4.5,4.5-10.6,6.7-18.3,6.7h-24.9v-71h24.9
		c7.8,0,13.9,2.2,18.3,6.7c3.4,3.4,5.5,7.8,6.5,13.2C717.7,97.9,717.9,103,717.9,110.3z M707.2,110.3c0-5.9-0.2-10-0.5-12.4
		c-0.5-3.6-1.6-6.3-3.3-8.2c-2.9-3.2-6.9-4.8-12.1-4.8h-13.1v51.6h13.1c5.2,0,9.2-1.6,12.1-4.8c1.7-1.9,2.8-4.7,3.3-8.7
		C707,120.6,707.2,116.3,707.2,110.3z"/>
	<path d="M774.3,126c0,6.4-2.4,11.5-7.1,15.2c-4.7,3.7-10.9,5.6-18.4,5.6c-10.6,0-18.9-3.1-25.1-9.4l7.2-7.1
		c4.5,4.5,10.6,6.8,18.1,6.8c4.6,0,8.3-0.9,10.8-2.8c2.6-1.9,3.8-4.6,3.8-8c0-3.2-0.9-5.6-2.8-7.4c-1.6-1.5-4.2-2.5-7.8-3l-8.4-1.2
		c-5.8-0.9-10.3-2.8-13.5-5.7c-3.5-3.3-5.2-7.8-5.2-13.6c0-6.2,2.1-11.3,6.4-15.1c4.3-3.8,10-5.7,17.3-5.7c8.9,0,16.2,2.7,22,8.1
		l-6.9,6.8c-3.9-3.7-9-5.5-15.4-5.5c-4.1,0-7.2,1-9.5,3.1c-2.3,2.1-3.4,4.7-3.4,8c0,2.8,0.9,5,2.7,6.6c1.8,1.6,4.5,2.7,7.9,3.2
		l8.1,1.2c5.8,0.9,10.3,2.6,13.3,5.3C772.4,114.9,774.3,119.7,774.3,126z"/>
</g>
</svg>
